<?xml version="1.0" encoding="utf-8"?>
<!-- Generator: Adobe Illustrator 25.4.1, SVG Export Plug-In . SVG Version: 6.00 Build 0)  -->
<svg version="1.1" id="Layer_1" xmlns="http://www.w3.org/2000/svg" xmlns:xlink="http://www.w3.org/1999/xlink" x="0px" y="0px"
	 viewBox="0 0 550 550" style="enable-background:new 0 0 550 550;" xml:space="preserve">
<style type="text/css">
	.st0{fill:#ffe135;}
</style>
<g>
	<polygon class="st0" points="289.32,368.19 278.04,330.6 266.76,368.19 225.47,379.89 241.38,390.94 274.9,376.1 278.04,366.76 
		281.18,376.1 314.7,390.94 330.61,379.89 	"/>
	<polygon class="st0" points="278.04,405.14 299.08,394.62 257,394.62 	"/>
	<g>
		<polygon class="st0" points="224.33,311.86 236.2,283.26 226.16,279.7 207.6,320.92 228.43,320.92 238.89,304.74 235.44,301.72 
			226.92,316.28 217.2,316.28 217.2,311.86 		"/>
		<polygon class="st0" points="193.25,307.97 216.34,272.3 206.84,263.84 173.07,314.17 197.38,321.65 211.27,295.13 208.79,293.3 
			194.76,314.99 182.67,310.89 185.06,307.97 		"/>
		<polygon class="st0" points="329.16,316.28 320.64,301.72 317.19,304.74 327.65,320.92 348.48,320.92 329.92,279.7 319.88,283.26 
			331.75,311.86 338.88,311.86 338.88,316.28 		"/>
		<polygon class="st0" points="383.01,314.17 349.24,263.84 339.74,272.3 362.83,307.97 371.02,307.97 373.41,310.89 361.32,314.99 
			347.29,293.3 344.81,295.13 358.7,321.65 		"/>
		<path class="st0" d="M385.93,182.11l-30.03,27c0,0-24.42,0.12-34.71,28.98l31.55-12.27l-74.7,53.87l-74.7-53.87l31.55,12.27
			c-10.28-28.87-34.71-28.98-34.71-28.98l-30.03-27L28.04,152.54l6.66,11.1l3.27,25.59l74.14,3.24v-3.24l-68.91-5.11l-4.12-22.15
			h6.35l2.34,14.14c19.82,2.31,39.64,4.63,59.45,6.94c13.2,1.52,54.49,5.45,55.88,21.99l-112.04-7.39l14.26,29.57l49.41-0.91v-5.12
			H67.92l-9.03-16.86h8.28l5.27,12.19h95.57l6.16,6.01c0.5,0.48,0.81,1.16,0.75,1.85c-0.29,3.18-5.7,3.45-7.97,3.64
			c-5.62,0.48-11.22,1.08-16.83,1.63c-28.07,2.77-56.14,5.54-84.21,8.31l31.9,31.55l42.54-16.82l-2.87-2.72l-36.95,13.44
			l-22.41-20.09l6.19-2.57l17.97,16.46c16.62-4.91,33.23-9.81,49.85-14.72c10.54-2.76,22.2-8.46,32.92-3.56l-78.25,35.82l21.74,18.7
			l31.88-21.69l-2.75-2.95l-28.08,18.62l-12.21-9.97l3.56-2.03l8.55,6.61c12.37-7.89,24.74-15.79,37.11-23.68
			c3.94-2.51,7.87-5.03,11.81-7.54c1.02-0.65,1.99-1.43,3.2-1.6c2.72-0.38,5.46-0.67,8.21-0.69c2.64,0.03,5.84-0.09,7.93,1.77
			l-60.57,45.73l22.32,14.26l25.54-24.67l-3.35-2.48l-22.19,21.69l-10.4-6.66l2.27-2.84l8.63,3.45l44.57-44.03l57.62,33.45
			l-15,70.47h-11.01l3.88-19.42h-29.5l-11.07,31.08h-9.6l17.48-35.61l36.69-3.24l10.14-37.44l-6.69-1.51l-8.31,29.57l-39.15,5.26
			l-25.73,58.52c-0.13,0.3-0.07,0.65,0.16,0.88l1.15,1.15c0.21,0.21,0.51,0.28,0.79,0.2l82.05-25.45l19.57-61.12l19.54,61.12
			l82.05,25.45c0.28,0.09,0.58,0.01,0.79-0.2l1.15-1.15c0.23-0.23,0.3-0.58,0.16-0.88L356,327.36l-39.15-5.26l-8.3-29.56l-6.69,1.51
			L312,331.49l36.69,3.24l17.48,35.61h-9.6l-11.07-31.08H316l3.88,19.42h-11.01l-15-70.47l57.62-33.45l44.57,44.03l8.63-3.45
			l2.27,2.84l-10.4,6.66l-22.19-21.69l-3.35,2.48l25.54,24.67l22.32-14.26l-60.57-45.73c2.1-1.86,5.29-1.74,7.93-1.77
			c2.75,0.03,5.49,0.31,8.21,0.69c1.22,0.17,2.18,0.95,3.2,1.6c3.94,2.51,7.87,5.03,11.81,7.54c12.37,7.89,24.74,15.79,37.11,23.68
			l8.55-6.61l3.56,2.03l-12.21,9.97l-28.08-18.62l-2.75,2.95l31.88,21.69l21.74-18.7l-78.25-35.82c10.72-4.9,22.37,0.8,32.92,3.56
			c16.62,4.91,33.23,9.81,49.85,14.72l17.97-16.46l6.19,2.57l-22.41,20.09l-36.95-13.44l-2.87,2.72l42.54,16.82l31.9-31.55
			c-28.07-2.77-56.14-5.54-84.21-8.31c-5.61-0.55-11.22-1.15-16.83-1.63c-2.26-0.19-7.67-0.47-7.97-3.64
			c-0.06-0.69,0.25-1.37,0.75-1.85l6.16-6.01h95.57l5.27-12.19h8.28l-9.03,16.86h-46.81v5.12l49.41,0.91L505,197.66l-112.04,7.39
			c1.39-16.55,42.69-20.48,55.88-21.99c19.82-2.31,39.64-4.63,59.45-6.94l2.34-14.14h6.35l-4.12,22.15l-68.91,5.11v3.24l74.14-3.24
			l3.27-25.59l6.68-11.11L385.93,182.11z"/>
	</g>
	<path class="st0" d="M282.76,163.16c1.22-0.04,2.42-0.35,3.51-0.91l20.27-10.44c4.42-2.45,10.96-3.27,10.96-3.27
		c-0.45-3.33-3.91-4.99-6.79-5.83c-8.11-2.36-17.39,1.02-24.12,5.67h-32.55c-8.79,0-15.85,8.87-19.21,16.14
		c-0.22,0.47-0.7,2.52-1.09,2.75c0,0,16.38-9.38,45.3-4.38C280.26,163.1,281.51,163.21,282.76,163.16z"/>
	<polygon class="st0" points="270.91,170.39 219.12,200.14 238.89,209.97 	"/>
	<polygon class="st0" points="286.22,173.1 238.89,219.26 257.09,220.63 	"/>
	<polygon class="st0" points="299.16,190.31 271.57,265.43 291.51,260.51 	"/>
	<polygon class="st0" points="309.53,193.74 302.16,232.92 312.82,239.48 	"/>
	<path class="st0" d="M267.66,251.77l-22.65-1.11l58.84-90.11c0,0,3.51-5.17,8.12-4.8h2.59v5.46c-0.01-0.06-2.08,0.01-2.23,0.01
		c-2.35,0.03-4.57,1.22-5.8,3.27c-0.79,1.31-1.23,2.82-1.85,4.22c-0.68,1.52-1.36,3.05-2.04,4.57c-1.11,2.49-2.22,4.99-3.33,7.48
		c-1.35,3.02-2.7,6.05-4.04,9.07c-1.5,3.37-3,6.73-4.5,10.1c-1.57,3.52-3.14,7.04-4.7,10.55c-1.55,3.48-3.1,6.96-4.66,10.45
		c-1.45,3.26-2.9,6.52-4.36,9.77c-1.27,2.85-2.54,5.69-3.8,8.54c-1,2.24-2,4.49-3,6.73c-0.65,1.45-1.3,2.91-1.95,4.36
		C268.09,250.81,267.88,251.29,267.66,251.77z"/>
	<path class="st0" d="M331.71,187.87c-1.61,3.46-2.73,5.87-2.73,5.87h-11.49l19.12-36.2h13.41v-6.18h-25.77c0,0-0.05,0-0.13,0
		c0-2.09,0-7.36,0-7.36h28.14l9.99,19.2h-19.06C343.19,163.2,335.84,179,331.71,187.87z"/>
</g>
</svg>
